<svg id="Layer_1" data-name="Layer 1" xmlns="http://www.w3.org/2000/svg" xmlns:xlink="http://www.w3.org/1999/xlink" viewBox="0 0 348 104"><defs><style>.cls-1{fill:#fff;}.cls-2{fill:#1a5444;}.cls-3{mask:url(#mask);}.cls-4{fill:url(#radial-gradient);}.cls-5{fill:url(#radial-gradient-2);}.cls-6{fill:url(#radial-gradient-3);}.cls-7{fill:#59595c;}.cls-8{fill:none;stroke:#23201f;stroke-miterlimit:10;stroke-width:0.5px;}</style><mask id="mask" x="115.91" y="5.55" width="116.44" height="20.61" maskUnits="userSpaceOnUse"><path class="cls-1" d="M198.27,22.58a1.56,1.56,0,0,1-.59-.15,2.89,2.89,0,0,1-1.12-1.18c-.29-.52-.51-1-.81-1.56a7,7,0,0,0-.52-1,10.35,10.35,0,0,0-1.7-2.44h0a4.84,4.84,0,0,0,1.55-1.19,3.91,3.91,0,0,0,1.11-2.29,7.79,7.79,0,0,0,0-1.93,4.7,4.7,0,0,0-1.77-3.33,6.05,6.05,0,0,0-3.63-1.18h-4.52a1,1,0,0,0-1,.81,3.25,3.25,0,0,0-.07.82V23.62a1,1,0,0,0,1,1H187a1,1,0,0,0,1.12-1.11V17h1.18a1.32,1.32,0,0,1,.59.15,6.65,6.65,0,0,1,1.26.89,9.27,9.27,0,0,1,1.33,1.55,14.6,14.6,0,0,1,.89,1.26c.37.59.74,1.11,1.19,1.7a5.05,5.05,0,0,0,2.14,1.78,4.35,4.35,0,0,0,1.26.29h0a1.34,1.34,0,0,0,.52-.07.75.75,0,0,0,.67-.81C199.38,23.25,199.23,22.66,198.27,22.58ZM188.2,12.81V8.74h2.37a2.83,2.83,0,0,1,1.18.15,2.25,2.25,0,0,1,1.26,1,4.19,4.19,0,0,1,.37,2.59A2.65,2.65,0,0,1,192,14.59a3,3,0,0,1-1.25.29H188.2A10.23,10.23,0,0,0,188.2,12.81Z"/><path class="cls-1" d="M177.24,9a8.24,8.24,0,0,0-3.92-2.22,17.49,17.49,0,0,0-2.67-.37c-.81-.07-1.62-.07-2.37-.07h-1.85a1.14,1.14,0,0,0-.81.22,1.14,1.14,0,0,0-.22.81V23.69a1,1,0,0,0,1,1h1.85c1.11,0,2.22,0,3.33-.07a4.87,4.87,0,0,0,1.19-.15,7.15,7.15,0,0,0,2.51-1,9.34,9.34,0,0,0,3.26-2.89,8,8,0,0,0,1.33-3.18,14.79,14.79,0,0,0,.23-2.44,7.51,7.51,0,0,0-.74-3.19A21.58,21.58,0,0,0,177.24,9Zm-8.51,13.63h-.37V8.52h1.92l2,.22a3.68,3.68,0,0,1,1.71.74,5.74,5.74,0,0,1,1.4,1.18,11.55,11.55,0,0,1,.89,1.41,9,9,0,0,1,.59,1.48,4.56,4.56,0,0,1,.22,1.41,7.39,7.39,0,0,1,0,1.33,7.11,7.11,0,0,1-.51,2.15A6.6,6.6,0,0,1,174.73,21a4.73,4.73,0,0,1-2.52,1.25,17.45,17.45,0,0,1-3,.3A1.45,1.45,0,0,1,168.73,22.66Z"/><path class="cls-1" d="M135.64,14.59h-7.41a1.84,1.84,0,0,0-.66.14.89.89,0,0,0-.45,1.26,1.39,1.39,0,0,0,.89.59h5.92c-.07.23-.07.37-.14.6v.37c0,.14-.08.22-.08.37s-.15.52-.22.74a8.77,8.77,0,0,1-1.26,2.07,5.76,5.76,0,0,1-1.85,1.48,5.28,5.28,0,0,1-2.15.45h-.37a6.23,6.23,0,0,1-1.77-.38A7.24,7.24,0,0,1,123,19.69a6.46,6.46,0,0,1-1.19-3.25,9,9,0,0,1,.3-3.56,6.47,6.47,0,0,1,1.18-2,6.32,6.32,0,0,1,1.48-1.33,4.92,4.92,0,0,1,2.67-.81,5.56,5.56,0,0,1,1,.07,5.67,5.67,0,0,1,3.11,1.56,9.92,9.92,0,0,1,1.7,2.29,1.76,1.76,0,0,0,1.7,1.11h.15a1.09,1.09,0,0,0,.89-.37,1.34,1.34,0,0,0,.22-.89c0-.15-.07-.29-.07-.44a9,9,0,0,0-1.78-2.74,7.58,7.58,0,0,0-2.44-1.78,7.85,7.85,0,0,0-3.34-1h-.74a9.68,9.68,0,0,0-3.25.59A8.45,8.45,0,0,0,121,9.85a8.3,8.3,0,0,0-1.85,3.7,8.72,8.72,0,0,0-.15,2.74,15,15,0,0,0,.44,2.52A9.15,9.15,0,0,0,120.53,21a9.83,9.83,0,0,0,1.71,1.85,11.57,11.57,0,0,0,2.07,1.26,7.43,7.43,0,0,0,2,.59,8.7,8.7,0,0,0,1.48.08c.67,0,1.33-.08,2.07-.15a7.1,7.1,0,0,0,2.3-.81c.15-.08.29-.23.44-.3.3-.22.67-.44,1-.67a9.68,9.68,0,0,0,1.77-2,8.12,8.12,0,0,0,1.19-2.66,15.75,15.75,0,0,0,.3-1.78.56.56,0,0,1,.07-.29,1.11,1.11,0,0,0-.22-1A1.67,1.67,0,0,0,135.64,14.59Z"/><path class="cls-1" d="M156.88,8.66a8.49,8.49,0,0,0-5.7-2.14,8.9,8.9,0,0,0-5.77,2.07,8.67,8.67,0,0,0-3,4.74,9.16,9.16,0,0,0,.3,5.25,9.29,9.29,0,0,0,3,4.3,8.09,8.09,0,0,0,5.1,1.77h0a6.79,6.79,0,0,0,1.19-.07,8.53,8.53,0,0,0,6.44-3.78,9,9,0,0,0,1.18-8A8.16,8.16,0,0,0,156.88,8.66Zm-4.81.08h0a6.34,6.34,0,0,1,4,3,7.48,7.48,0,0,1,.74,6.14c-1,3.48-3.63,4.67-5.7,4.67-2.74,0-5-1.93-5.92-5a7.47,7.47,0,0,1,2.74-8,6.5,6.5,0,0,1,3.18-1,7.93,7.93,0,0,0,1,.22Z"/><path class="cls-1" d="M212.11,6.59a3.86,3.86,0,0,1-.89-.07c-.44,0-.81-.08-1.26-.08h-4.22a1,1,0,0,0-.74.3,1,1,0,0,0-.29.74v16a1.36,1.36,0,0,0,.15,1,1.21,1.21,0,0,0,.88.37h6.08a1.08,1.08,0,0,0,.81-.29.74.74,0,0,0,.22-.74.94.94,0,0,0-1-1h-.52c-1.11,0-2.3,0-3.41.07h-.15V16.73h4.08a.9.9,0,0,0,.81-1,1,1,0,0,0-1-1c-1.11,0-2.22-.08-3.33-.08h-.6V8.66h4.45a.87.87,0,0,0,.74-.44A1.52,1.52,0,0,0,213,7.7h0c0-.37-.07-.59-.22-.67A.72.72,0,0,0,212.11,6.59Z"/><path class="cls-1" d="M228,6.59h-6.44a.86.86,0,0,0-.89.89,1.3,1.3,0,0,0,.23.81.9.9,0,0,0,.81.3h4.22c0,.52.08,1,.08,1.55v9a5.08,5.08,0,0,1-.45,2,2.07,2.07,0,0,1-1.92,1.41h-.08a1.77,1.77,0,0,1-1.55-.74l-.22-.22a2.87,2.87,0,0,1-.67-1.11,1.42,1.42,0,0,0-1.33-1.19h-.15a1.17,1.17,0,0,0-1,.45,1.12,1.12,0,0,0,.08,1.33c.07.15.22.3.29.44a6.37,6.37,0,0,0,1.93,2.3,3.35,3.35,0,0,0,2,.74h1.48a5.69,5.69,0,0,0,1.33-.3,5.3,5.3,0,0,0,2.15-1.85,5.75,5.75,0,0,0,1-3c.08-.66.08-1.4.15-2.07v-.3c0-1.4.07-2.88.07-4.44V7.48a.9.9,0,0,0-.22-.67A4.13,4.13,0,0,0,228,6.59Z"/></mask><radialGradient id="radial-gradient" cx="-24.52" cy="-1264.48" r="44.01" gradientTransform="matrix(1.01, 0, 0, -0.28, 198.85, -333.85)" gradientUnits="userSpaceOnUse"><stop offset="0" stop-color="#53acdc"/><stop offset="0.06" stop-color="#53acdc"/><stop offset="0.33" stop-color="#47a2d5"/><stop offset="0.81" stop-color="#2789c1"/><stop offset="1" stop-color="#197eb8"/></radialGradient><radialGradient id="radial-gradient-2" cx="-24.5" cy="-2748.24" r="47.7" gradientTransform="matrix(1.01, 0, 0, -0.16, 198.85, -421.35)" gradientUnits="userSpaceOnUse"><stop offset="0" stop-color="#c9437f"/><stop offset="1" stop-color="#b8296d"/></radialGradient><radialGradient id="radial-gradient-3" cx="-24.52" cy="-2033.64" r="45.09" gradientTransform="matrix(1.01, 0, 0, -0.2, 198.85, -395.33)" gradientUnits="userSpaceOnUse"><stop offset="0" stop-color="#96b654"/><stop offset="0.04" stop-color="#96b654"/><stop offset="0.22" stop-color="#89b14e"/><stop offset="0.59" stop-color="#75aa45"/><stop offset="0.83" stop-color="#6da742"/><stop offset="1" stop-color="#6da742"/></radialGradient></defs><path class="cls-2" d="M227.47,68.54a8.82,8.82,0,0,1-1.91-.45,5.39,5.39,0,0,1-2.5-2.35c-.74-1.33-1.48-2.8-2.07-4a28.32,28.32,0,0,0-4.71-7.07,12.08,12.08,0,0,0,4.27-3.38,8.26,8.26,0,0,0,1.77-3.39,23.43,23.43,0,0,0,.29-4.57,9.47,9.47,0,0,0-1.62-5,8.39,8.39,0,0,0-2.5-2.65,12.11,12.11,0,0,0-6.63-2.36c-.73,0-1.62-.15-2.65-.15h-8a2.09,2.09,0,0,0-2.21,2.21V70.3a1.67,1.67,0,0,0,1.77,1.92h2.36a1.78,1.78,0,0,0,1.76-2.06V55.72h.89a8.21,8.21,0,0,1,1.91.15,2.83,2.83,0,0,1,1.18.15A8.16,8.16,0,0,1,212,58.08a30.63,30.63,0,0,1,2.8,3.53c.59.89,1.18,1.62,1.77,2.51.88,1.18,1.62,2.5,2.5,3.68a9.59,9.59,0,0,0,6,4.12,10.91,10.91,0,0,0,2.21.15h.14a1.33,1.33,0,0,0,1.18-.59,2.44,2.44,0,0,0,.44-1.47A1.72,1.72,0,0,0,227.47,68.54ZM211.28,51.75H209.8c-1.47,0-2.94,0-4.56.15h-.44v-14H212a4.94,4.94,0,0,1,2.51,1.17l.14.15A3.78,3.78,0,0,1,216,41.44a12.84,12.84,0,0,1,.73,4.12A6.6,6.6,0,0,1,211.28,51.75Z"/><path class="cls-2" d="M81.69,68.39A4.48,4.48,0,0,1,78.16,66c-1-1.76-2.06-3.53-3.1-5.59a19.81,19.81,0,0,0-4.12-5.75,12.17,12.17,0,0,0,3.83-2.94,9.13,9.13,0,0,0,2.36-5.6A12.94,12.94,0,0,0,76,39.08a8.81,8.81,0,0,0-3-3.38,12.37,12.37,0,0,0-7.36-2.21H55.77a1.78,1.78,0,0,0-1.91,1.91V69.86a3,3,0,0,0,.29,1.77,2.13,2.13,0,0,0,1.62.73h1.62a2.44,2.44,0,0,0,1.92-.73,2.29,2.29,0,0,0,.15-1.92h0V68.09c0-1.62,0-3.09-.15-4.71V59.7a26.64,26.64,0,0,1,.15-3.53v-.3H62.7a5.65,5.65,0,0,1,2.5.89,14.58,14.58,0,0,1,3.39,3.38,21.28,21.28,0,0,1,1.32,1.92c1,1.47,2.21,3.09,3.24,4.56A19.79,19.79,0,0,0,76,69.86a9.15,9.15,0,0,0,5.74,2.36h.15a2.1,2.1,0,0,0,1.62-.74,2,2,0,0,0,.44-1.77A2.6,2.6,0,0,0,81.69,68.39ZM59.31,47.33V37.61h4.56a15.65,15.65,0,0,1,2.65.15A4.24,4.24,0,0,1,69,39.08c1.47,1.18,1.91,2.8,2.21,4.86a7.56,7.56,0,0,1-.15,3.1,6.12,6.12,0,0,1-3.54,4.27,7.09,7.09,0,0,1-3.24.59h-5Z"/><path class="cls-2" d="M152.23,53.07a18,18,0,0,0-5.45-3.68,4.34,4.34,0,0,1-1.18-.59c-1.91-.88-3.83-1.76-5.74-2.5l-.3-.15a16.41,16.41,0,0,1-5.3-2.8c-1.62-1.32-1.18-2.2-.74-3.09,1.18-1.62,3.1-2.5,5.6-2.8h1.62a3.64,3.64,0,0,1,1.33.15,10.6,10.6,0,0,1,2.65.59,5.72,5.72,0,0,1,3.53,6.19c0,.29-.15.44-.15.73a4.54,4.54,0,0,0-.29,1.33,2.5,2.5,0,0,0,.44,1.47,1.7,1.7,0,0,0,1.47.59h.44a1.3,1.3,0,0,0,.74-.15c.3,0,.74-.15,1-.15h.15a2,2,0,0,0,1.91-2.5v-.59a5.79,5.79,0,0,0-.14-1.47v-.3a10.07,10.07,0,0,0-.3-1.91,10.49,10.49,0,0,0-3.24-4.86,12.92,12.92,0,0,0-8.54-3.24h0a14,14,0,0,0-2.5.15c-.59,0-1,.15-1.62.15a7.93,7.93,0,0,0-4,1.17,10.23,10.23,0,0,0-4,3.54,7.15,7.15,0,0,0-1.18,5.45,8.87,8.87,0,0,0,3.39,5.3,25.19,25.19,0,0,0,5.74,3.38,7,7,0,0,0,1,.45,20.4,20.4,0,0,0,2.65,1.17c.59.3,1.32.59,1.91.89l.3.15c1.18.58,2.5,1.17,3.53,1.76a9.38,9.38,0,0,1,2.8,2.51,4.21,4.21,0,0,1,.74,3.68,5.78,5.78,0,0,1-2.51,3.38c-.14.15-.29.3-.44.3a4.85,4.85,0,0,1-1.18.73,13,13,0,0,1-4.41.89h-.59a14.86,14.86,0,0,1-4.42-1,6.08,6.08,0,0,1-3.54-4.27,3.28,3.28,0,0,1,0-2.36,3.12,3.12,0,0,0,.3-1.62h0c0-.59,0-1-.44-1.32a1.87,1.87,0,0,0-1.33-.59h0a18.83,18.83,0,0,0-2.8.14,2.22,2.22,0,0,0-2.06,2.07,8.92,8.92,0,0,0,1,5.3,13.5,13.5,0,0,0,5,5.45c.15.14.29.14.59.29a18.36,18.36,0,0,0,2.94,1.33,29,29,0,0,0,3.54.58c.44,0,1,.15,1.47.15l1,.15v-.3a5.79,5.79,0,0,0,1.62-.14c1.33-.3,2.36-.44,3.39-.74a8,8,0,0,0,1.91-.88.52.52,0,0,0,.3-.15,9.78,9.78,0,0,0,3.38-3.09,10.11,10.11,0,0,0,1.92-6.78A10.25,10.25,0,0,0,152.23,53.07Z"/><path class="cls-2" d="M265,33.34a1.29,1.29,0,0,0-.73-.15,1.92,1.92,0,0,0-1.92,1.33l-.14.29c-.59,1.48-1.33,3.1-1.92,4.57-.44,1.18-.88,2.35-1.32,3.39s-.74,2.06-1.18,2.94c-.3.59-.59,1.33-.89,1.92a5.07,5.07,0,0,1-.58,1.32c-.89,2.21-1.92,4.71-2.95,7.22-.74,1.91-1.47,3.53-2.06,5.3,0,.14-.15.14-.15.29-.15-.29-.15-.44-.29-.73l-.15-.59c-.15-.3-.29-.74-.44-1-.3-.74-.44-1.33-.74-2.07a20.78,20.78,0,0,0-1.18-2.79c-.29-.89-.73-1.62-1-2.51-.29-.59-.44-1.32-.73-1.91l-.89-2.21c-.44-1-.88-2.06-1.17-3-.45-1-.89-2.2-1.33-3.38s-.88-2.36-1.33-3.68a6.05,6.05,0,0,0-.58-1.48l-.15-.29c-.15-.59-.44-1-.59-1.62a1.87,1.87,0,0,0-1.91-1.33h-2.21a2.17,2.17,0,0,0-1.77.74,2.11,2.11,0,0,0-.3,1.77c.15.29.15.59.3.88,0,.15.15.15.15.3a.53.53,0,0,0,.14.29c.15.29.3.44.3.74.15.29.15.59.29.88s.3.88.44,1.33c.74,1.76,1.48,3.68,2.21,5.44s1.33,3.24,2.07,4.86c.29.74.58,1.48.88,2.21s.59,1.47.88,2.36.74,1.77,1,2.5c.44,1,.89,2.06,1.18,2.95.88,2.35,1.77,4.56,2.5,6.77.3.88.59,1.77.89,2.65.15.59.44,1.18.59,1.77,0,.15.44,1.18,1.32,1.18h0a2.51,2.51,0,0,0,1.62-.74,4.52,4.52,0,0,0,.74-1.47c.29-.59.44-1.33.73-1.92.3-.88.59-1.62.89-2.5a8.26,8.26,0,0,1,.73-1.62c.3-.59.45-1.18.74-1.77s.44-1,.59-1.62a7.05,7.05,0,0,1,.59-1.62,27.9,27.9,0,0,0,1.18-3.09c.29-.88.73-1.62,1-2.5s.59-1.62.88-2.36.44-1.32.74-1.91c.44-1,.73-2.06,1.18-2.95s.73-1.91,1.17-2.8c.45-1.17.89-2.35,1.33-3.53l.44-1.18a7,7,0,0,0,.44-1c.3-.88.74-1.77,1-2.65a2,2,0,0,0,0-1.62C265.91,33.78,265.61,33.49,265,33.34Z"/><path class="cls-2" d="M177,37.61h7.21a1.59,1.59,0,0,0,1.47-1,2.43,2.43,0,0,0-.14-2.36,2.62,2.62,0,0,0-2.07-1h-13.1a2.08,2.08,0,0,0-1.62.45,2.11,2.11,0,0,0-.44,1.62V70a2.88,2.88,0,0,0,.44,1.77,2.21,2.21,0,0,0,1.62.58h13a2.44,2.44,0,0,0,1.32-.29,2.24,2.24,0,0,0,1-1.47,1.83,1.83,0,0,0-.44-1.77,2.49,2.49,0,0,0-1.77-.59h-9.27V55c.59,0,1.18-.15,1.62-.15h6.77a2.07,2.07,0,0,0,1.62-.59,1.48,1.48,0,0,0,.44-1.47,1.87,1.87,0,0,0-2.06-2.06h-8.39V37.32h1.91A1.48,1.48,0,0,0,177,37.61Z"/><path class="cls-2" d="M293.3,68.68a3,3,0,0,0-1-.14h-.15c-2.95,0-6,0-9.43-.15V55h8.4a1.74,1.74,0,0,0,1.62-.74,1.81,1.81,0,0,0,.29-1.62A1.86,1.86,0,0,0,291.09,51h-8.4V37.46h1.62c3.1,0,5.45.15,7.81.15h0a1.7,1.7,0,0,0,1.47-.59,2.36,2.36,0,0,0,.59-1.62,1.87,1.87,0,0,0-2.06-2.06h-13.7a1.71,1.71,0,0,0-1.91,1.92V70a1.87,1.87,0,0,0,2.06,2.06h2.21c3.53,0,7.22,0,10.75.15h0a1.82,1.82,0,0,0,.88-.15c1.62-.44,1.62-1.47,1.48-2.5C294.18,69.12,293.59,68.83,293.3,68.68Z"/><path class="cls-2" d="M103.19,37.61h9a1.74,1.74,0,0,0,1.62-.73,2.29,2.29,0,0,0,.15-2.36,2.34,2.34,0,0,0-2.06-1.18h-13c-.74,0-1.62,0-2.06.59a2,2,0,0,0-.44,1.77c.14,1.62.14,3.24.14,4.56,0,7.66,0,15.91.15,26.66V70.3a1.93,1.93,0,0,0,.44,1.62,1.73,1.73,0,0,0,1.48.59h13.1a2.17,2.17,0,0,0,1.77-.59,2.76,2.76,0,0,0,.59-1.62c0-.73-.3-1.76-2.06-1.76H102.6v-3c0-2.5,0-4.86.15-7.36V55.14h9c.88,0,1.33-.89,1.47-1.18a1.39,1.39,0,0,0,.15-1v-.15a1.52,1.52,0,0,0-1.62-1.62h-9V37.76C102.75,37.61,103,37.61,103.19,37.61Z"/><g class="cls-3"><rect class="cls-4" x="115.91" y="9.55" width="116.4" height="12.95"/><path class="cls-5" d="M232.31,26.17H115.91V14.9A382,382,0,0,0,162,19.47c8.34.33,15.06.39,20.05.45,12.56.11,29.9-.06,50.29-1.24C232.31,21.16,232.31,23.69,232.31,26.17Z"/><path class="cls-6" d="M232.31,14.9c-7.86.4-16.38.79-25.49,1-36.14,1.07-67.66.17-90.91-1V5.55h116.4Z"/></g><polygon class="cls-7" points="92.2 94.6 92.2 83.3 93.5 83.3 93.5 89.4 100.8 83.3 102.4 83.3 96.9 87.9 102.8 94.6 101.1 94.6 95.9 88.7 93.5 90.8 93.5 94.6 92.2 94.6"/><path class="cls-7" d="M112.9,94.6l-1.5-3.5h-6l-1.6,3.5h-1.3l5.1-11.4H109l5.1,11.4ZM111,90.1l-2.5-5.7L106,90.1Z"/><polygon class="cls-7" points="115.3 94.6 115.3 83.3 116.6 83.3 124.7 93 124.7 83.3 125.8 83.3 125.8 94.6 124.4 94.6 116.5 85 116.5 94.6 115.3 94.6"/><path class="cls-7" d="M127.9,94.6V83.3h5.4a4.54,4.54,0,0,1,3.7,1.5,5.62,5.62,0,0,1,1.3,4.1A6.91,6.91,0,0,1,137,93a4.18,4.18,0,0,1-3.7,1.6Zm1.2-10.3v9.1h4.3a4.36,4.36,0,0,0,2.7-.9,4.89,4.89,0,0,0,1.2-3.6c0-3-1.3-4.6-3.8-4.6Z"/><rect class="cls-7" x="140.4" y="83.3" width="1.2" height="11.4"/><polygon class="cls-7" points="148.1 93.2 152.5 83.3 153.8 83.3 148.8 94.6 147.5 94.6 142.5 83.3 143.9 83.3 148.1 93.2"/><path class="cls-7" d="M163.8,94.6l-1.5-3.5h-6l-1.6,3.5h-1.3l5.1-11.4h1.4L165,94.6Zm-2-4.5-2.5-5.7-2.5,5.7Z"/><polygon class="cls-7" points="166.1 94.6 166.1 83.3 167.2 83.3 167.2 93.5 174.5 93.5 174.5 94.6 166.1 94.6"/><rect class="cls-7" x="175.6" y="83.3" width="1.2" height="11.4"/><path class="cls-7" d="M179.4,94.6V92.9h1.4v1.7c0,1.3-.5,2-1.5,2.2v-.5a.79.79,0,0,0,.5-.5,2.48,2.48,0,0,0,.1-.9C180.1,94.6,179.4,94.6,179.4,94.6Z"/><polygon class="cls-7" points="194.6 93.1 199.7 83.3 201.3 83.3 201.3 94.6 200.2 94.6 200.2 84.7 195.2 94.6 194 94.6 189.1 84.7 189.1 94.6 187.9 94.6 187.9 83.3 189.6 83.3 194.6 93.1"/><path class="cls-7" d="M213.6,83.3v6.9a5.49,5.49,0,0,1-.9,3.2,4.88,4.88,0,0,1-4.1,1.6c-2,0-3.3-.5-4.1-1.6a5.31,5.31,0,0,1-.9-3.2V83.3h1.2v6.9c0,2.3,1.3,3.6,4,3.6s4-1.3,4-3.6V83.3Z"/><polygon class="cls-7" points="222.5 93.1 227.5 83.3 229.2 83.3 229.2 94.6 228.1 94.6 228.1 84.7 223 94.6 221.9 94.6 217 84.7 217 94.6 215.8 94.6 215.8 83.3 217.4 83.3 222.5 93.1"/><path class="cls-7" d="M231.3,94.6V83.3h6.5a3.29,3.29,0,0,1,2.4.8,2.79,2.79,0,0,1,.8,2,3.81,3.81,0,0,1-.5,1.5,2.37,2.37,0,0,1-1.5.9,3.11,3.11,0,0,1,1.7.9,2.64,2.64,0,0,1,.5,2,2.75,2.75,0,0,1-1.3,2.5,4.09,4.09,0,0,1-2.5.7Zm1.2-10.3v4h4.6c1.7,0,2.7-.7,2.7-2s-.7-1.9-2.2-1.9l-5.1-.1Zm0,4.9v4.3h5c1.7,0,2.7-.7,2.7-2.2s-.8-2.1-2.3-2.1Z"/><path class="cls-7" d="M252.1,94.6l-1.5-3.5h-6L243,94.6h-1.3l5.1-11.4h1.4l5.1,11.4Zm-1.9-4.5-2.5-5.7-2.5,5.7Z"/><rect class="cls-7" x="254.6" y="83.3" width="1.2" height="11.4"/><line class="cls-8" x1="70.76" y1="78.93" x2="282.25" y2="78.93"/></svg>