<?xml version="1.0" encoding="utf-8"?>
<!-- Generator: Adobe Illustrator 25.4.1, SVG Export Plug-In . SVG Version: 6.00 Build 0)  -->
<svg version="1.1" id="Layer_1" xmlns="http://www.w3.org/2000/svg" xmlns:xlink="http://www.w3.org/1999/xlink" x="0px" y="0px"
	 viewBox="0 0 348 104" style="enable-background:new 0 0 348 104;" xml:space="preserve">
<style type="text/css">
	.st0{fill:#B98E33;}
	.st1{fill:url(#SVGID_1_);}
	.st2{fill:url(#SVGID_00000116202861532535272140000003671235115228883853_);}
	.st3{fill:url(#SVGID_00000168118177296637721690000001510921782039578007_);}
	.st4{fill:url(#SVGID_00000095297800812369961280000009943810837228922782_);}
	.st5{fill:url(#SVGID_00000071525296906100973090000015864502455460245433_);}
	.st6{fill:url(#SVGID_00000040562386117770667570000007650550347182566840_);}
	.st7{fill:url(#SVGID_00000165912788007712359330000011352110335844646304_);}
	.st8{fill:url(#SVGID_00000156585527405827780560000013604969101470244748_);}
	.st9{fill:url(#SVGID_00000071518535704297243880000010473392156057848454_);}
	.st10{fill:url(#SVGID_00000124864246765784074480000003297743755004171182_);}
</style>
<g>
	<g>
		<path class="st0" d="M166.6,8.6l-5.4,5.9v0.7h1.3v8.7c0,0.7-0.1,1.2-0.2,1.4c-0.1,0.2-0.5,0.7-1.1,1.1c1.1,0.1,1.9,0.5,2.8,1.1
			c0.8,0.5,1.8,1.1,2.5,1.8c0.8-0.7,1.4-1.2,2-1.4c0.7-0.5,1.2-0.8,1.8-1.3l-0.7-0.6l-1.2,0.7l-2-1.3v-9.9h4.1v-2h-4.1L166.6,8.6z
			 M151.8,20.3L151.8,20.3l-2.2-1.1v-4c0.7,0.2,1.2,0.5,1.9,0.7c0.1,0,0.1,0,0.2,0c0.5,0.1,1.1,0.1,1.8,0.1c0.2,0,0.5,0,1.1,0
			c0.2,0,0.8-0.1,1.2-0.1L151.8,20.3z M155.1,21.7v4.3c-0.7-0.2-1.3-0.5-2-0.8c-0.5-0.1-0.8-0.1-1.3-0.1c-0.1,0-0.5,0-0.7,0
			c-0.5,0-0.8,0-1.3,0.1c-0.5,0-0.8,0.1-1.3,0.2l3.4-3.8l1.1-1.1L155.1,21.7z M158.3,10.5c-0.2,0-0.5,0-0.7,0.1s-0.2,0.2-0.2,0.5
			c0,0.2,0.1,0.5,0.5,0.8c0.2,0.2,0.5,0.7,0.5,0.8c0,0.2-0.1,0.7-0.7,0.8c-0.2,0.1-0.8,0.2-1.4,0.2c-0.6,0-1.4-0.1-2.5-0.2
			c-0.7-0.1-1.2-0.2-1.9-0.7c-0.2-0.1-0.7-0.2-0.8-0.2c-0.7,0.7-1.4,1.2-2.3,1.4c-0.8,0.5-1.8,0.8-2.8,1.2v5.4l4,1.9l-5.2,5.9
			l0.8,0.5c0.7-0.2,1.3-0.5,2-0.7c0.7-0.1,1.3-0.1,2-0.1s1.3,0.1,2,0.2h0.1c0.7,0.1,1.2,0.5,1.9,0.8c0.8-0.7,1.8-1.2,2.5-1.4
			c0.8-0.2,1.8-0.7,2.5-1.1v-6.5l-3.8-1.9l3.5-4.1c0.5-0.5,0.8-0.8,1.1-1.3c0.1-0.2,0.2-0.7,0.2-1.1c0-0.2-0.1-0.7-0.2-1.1
			C159.1,10.5,158.9,10.5,158.3,10.5 M182.4,26.3c-0.7-0.1-1.3-0.2-2-0.7h-0.1c-0.7-0.1-1.3-0.5-2.2-0.7v-9.4
			c0.7,0.2,1.4,0.5,2.2,0.8h0.1c0.7,0.1,1.3,0.5,2,0.7V26.3z M180.1,12.8c-0.1,0-0.1-0.1-0.2-0.1c-0.8,0.7-1.8,1.2-2.8,1.8
			c-1.1,0.5-2,0.8-3.2,1.1v8.2c0,0.7-0.1,1.3-0.2,1.8c-0.1,0.2-0.5,0.7-0.8,1.1c1.3,0.1,2.8,0.5,4,1.1c1.2,0.5,2.3,1.1,3.4,1.8l0,0
			c0.8-0.5,1.8-1.1,2.8-1.4c1.1-0.4,2.2-0.8,3.4-1.1V15.3c-0.8-0.1-1.9-0.2-2.9-0.7C182.4,14,181.3,13.5,180.1,12.8 M219.4,11.6h0.2
			l3.2-3.8h-2.5L219.4,11.6z M219,12.8l-4.2,2.8l0.5,0.5l1.2-0.7l1.2,1.1c-0.2,0.8-0.7,1.4-0.8,2.3c-0.1,0.7-0.2,1.4-0.2,2.3
			s0.1,2.2,0.5,3.8c0.2,1.8,0.5,2.8,0.5,3.5c0,0.8-0.1,1.8-0.7,2.3c-0.2,0.7-1.1,1.3-1.9,1.9l0.5,0.5c1.9-0.7,3.2-1.4,4.1-2.5
			c0.8-1.1,1.3-2.2,1.3-3.8c0-0.5,0-1.2-0.1-2.3c-0.1-1.2-0.1-2-0.1-2.8c0-1.2,0.1-2,0.5-3.1c0.2-1.1,0.8-1.9,1.8-2.8
			c-0.5-0.2-1.2-0.7-1.9-1.2C220.5,14,219.9,13.5,219,12.8 M243.5,15.5l1.9,1.8l1.9,1.8l-1.9,1.2l-1.9,1.2V15.5z M246.7,26.7
			l-1.4-0.5l-1.8-0.7v-3.4c0.7-0.2,1.2-0.8,1.8-1.2c0.7-0.5,1.3-0.8,2-1.3c1.2-0.7,2.2-1.3,3.4-2l-5.3-4.6l0,0
			c-1.2,0.7-2.2,1.2-3.1,1.8c-0.8,0.5-1.8,0.8-2.5,1.1v9.3c0,0.7-0.1,1.2-0.2,1.4c-0.1,0.2-0.5,0.7-0.8,1.1c1.1,0.1,2,0.2,3.1,0.7
			c1.1,0.2,1.9,0.7,2.8,1.2c0.2-0.1,0.7-0.5,1.1-0.7c0.7-0.5,1.3-0.8,2-1.2c1.1-0.5,1.9-1.2,2.9-1.8l-0.7-0.5L246.7,26.7z M230.2,21
			v-5.9l1.9,1.8l1.9,1.8l-1.9,1.2L230.2,21z M232,20.9c0.7-0.5,1.3-0.8,2-1.3c1.2-0.7,2.2-1.3,3.4-2l-5.3-4.6l0,0
			c-1.2,0.7-2.2,1.2-3.1,1.8c-0.8,0.5-1.8,0.8-2.5,1.1v9.3c0,0.7,0,1.2-0.2,1.4c-0.1,0.2-0.5,0.7-0.8,1.1c1.1,0.1,2,0.2,3.1,0.7
			c1.1,0.2,1.9,0.7,2.8,1.2c0.2-0.1,0.7-0.5,1.1-0.7c0.7-0.5,1.3-0.8,2-1.2c1.1-0.5,1.9-1.2,2.9-1.8l-0.7-0.5l-2.8,1.4l-1.4-0.5
			l-1.8-0.7v-3.4C230.8,21.6,231.6,21.2,232,20.9 M115.3,16.1l-3.1,1.8V9.8l1.2-0.7l1.8,2l3.1,3.2L115.3,16.1z M111.3,24.3
			c-0.2-0.1-0.7-0.1-0.8-0.1l0,0c-0.2,0-0.5,0-0.8,0V11.4l0.8-0.5l0.8-0.5V24.3z M104.9,17.5l-1.4-1.1l-1.4-1.1l1.4-0.8l1.4-0.8
			V17.5z M125.5,26.2c-0.4-0.4-1.3-1.5-2.1-3.3c-0.2-0.7-0.5-1.2-0.7-1.4c-0.5-1.2-1.3-2.2-2.2-3.1c-1.1-0.8-2-1.8-3.4-2.2l6-3.2
			c-0.7-0.7-1.4-1.4-2.5-2.8c-1.9-2-3.1-3.2-3.5-3.5l-1.3,0.7l-4.9,2.8l-1.3,0.2c-0.1-1.2-0.7-2.2-1.4-2.9c-0.8-0.7-2-1.1-3.5-1.1
			c-0.1,0-0.5,0-0.7,0c-0.7,0-1.3,0.1-2,0.2c-0.8,0.2-1.9,0.7-2.8,1.3v0.5c0.7-0.1,1.2-0.1,1.8-0.2c0.5,0,0.8-0.1,1.3-0.1
			c0.7,0,1.2,0.1,1.8,0.2c0.1,0.1,0.5,0.1,0.7,0.2c0.5,0.5,0.8,1.1,0.8,1.9v1.9l-1.4,0.8l-5.4,3.4v0.1c2.2,0.7,3.8,1.8,4.9,2.9
			c0.1,0.1,0.1,0.1,0.2,0.2c0.8,1.1,1.4,2.2,1.8,3.5c-0.5,0.1-1.1,0.2-1.8,0.5c-1.1,0.2-1.9,0.7-2.8,1.2c-1.3,0.7-2.3,1.4-3.4,2.8
			l0.1,0.2c1.4-0.5,2.9-0.8,4.2-1.1c0.5-0.1,1.2-0.1,1.8-0.1c0.8,0,1.4-0.1,2.3-0.1c1.3,0,2.5,0.1,3.8,0.5c0.2,0.1,0.7,0.1,1.1,0.2
			c0.8,0.2,1.9,0.8,2.9,1.3l2-1.8l2.3-1.9l-0.7-0.5l-0.8,0.7c-0.1-0.1-0.5-0.2-0.8-0.2c-0.2-0.5-0.7-0.5-1.1-0.7
			c-0.7-0.1-1.3-0.5-2.2-0.7v-5.5l0,0c1.1,0,2,0.1,2.9,0.7c0.2,0.1,0.5,0.2,0.8,0.5c1.1,0.8,2,2.3,2.9,4.3c0.7,1.3,1.2,2.3,1.8,3.1
			c0.5,0.7,1.1,1.2,1.8,1.4h0.5l4-3.1l-0.7-0.5L125.5,26.2z M142.9,26.3c-0.2-0.1-0.5-0.2-0.7-0.5c-0.1-0.1-0.2-0.2-0.2-0.5v-9.5
			l1.2-1.1l-3.2-2.2l-3.1,2.2l1.1,1.1v8.5l-3.1,1.9c-0.2-0.1-0.7-0.5-1.1-0.7c-0.4-0.2-0.5-0.4-0.5-0.8v-9l1.2-1.1l-3.2-2.2
			l-4.1,2.8l0.7,0.5l0.8-0.5l0.7,0.5v9c0,0.8,0.1,1.8,0.7,2.3c0.5,0.7,1.2,1.3,2,1.9l5.5-3.8v0.1c0,0.8,0.1,1.4,0.7,2
			c0.2,0.5,1.1,1.1,1.9,1.4l3.8-2.8l-0.7-0.5L142.9,26.3z M212.6,26.4c-0.2-0.1-0.5-0.1-0.7-0.2c-0.1-0.1-0.2-0.2-0.2-0.5v-8.8
			c0.1-0.2,0.2-0.5,0.7-1.1c0.2-0.2,0.7-0.8,1.1-1.2l-0.7-0.5l-1.8,1.2l-2.8-2.3c-1.2,0.8-2.2,1.4-2.9,2.2c-0.8,0.5-1.4,1.1-2.2,1.3
			c-0.1-0.8-0.5-1.4-0.8-2c-0.2-0.7-1.1-1.2-1.8-1.4l-6,3.8v-0.1c0-0.8-0.1-1.4-0.7-2.2c-0.2-0.5-1.1-1.1-2-1.4l-3.4,2.8l0.7,0.5
			l0.7-0.5c0.2,0.1,0.5,0.2,0.7,0.7c0.1,0.1,0.1,0.5,0.1,0.8v8.8l-1.2,1.1l3.2,2.3l3.1-2.3l-1.2-1.2v-8.3l3.1-1.9
			c0.5,0.1,0.8,0.5,1.1,0.7c0.1,0.2,0.2,0.5,0.2,0.8v8.8l-1.2,1.1l3.2,2.3l3.1-2.3l-1.1-1.2v-8.6l2.8-1.8l1.8,1.3v8.1
			c0,1.2,0.1,2,0.5,2.8c0.4,0.8,1.1,1.2,1.9,1.4l3.8-2.8l-0.7-0.5L212.6,26.4z"/>
	</g>
</g>
<g>
	<linearGradient id="SVGID_1_" gradientUnits="userSpaceOnUse" x1="-16.7056" y1="56.0457" x2="397.1162" y2="54.9764">
		<stop  offset="0" style="stop-color:#E2C760"/>
		<stop  offset="1" style="stop-color:#B98E33"/>
	</linearGradient>
	<path class="st1" d="M31.4,41.9c2.3,1.4,4.2,3.3,5.5,5.7c1.3,2.5,2,5.2,2,8.3c0,3.1-0.7,5.9-2,8.3s-3.2,4.4-5.5,5.7
		c-2.3,1.4-5,2-7.9,2c-2.9,0-5.5-0.7-7.9-2s-4.2-3.3-5.5-5.7c-1.3-2.5-2-5.2-2-8.3c0-3.1,0.7-5.9,2-8.3c1.3-2.4,3.2-4.4,5.5-5.7
		c2.4-1.4,5-2,7.9-2C26.5,39.9,29.1,40.5,31.4,41.9z M17.8,45.1c-1.7,1-3,2.4-4,4.3c-1,1.9-1.4,4-1.4,6.5c0,2.5,0.5,4.6,1.4,6.5
		c1,1.9,2.3,3.3,4,4.3c1.7,1,3.6,1.5,5.8,1.5c2.1,0,4.1-0.5,5.8-1.5c1.7-1,3-2.4,4-4.3c1-1.9,1.4-4,1.4-6.5c0-2.5-0.5-4.7-1.4-6.5
		c-1-1.9-2.3-3.3-4-4.3c-1.7-1-3.6-1.5-5.8-1.5C21.4,43.6,19.5,44.1,17.8,45.1z"/>
	
		<linearGradient id="SVGID_00000037656557899412416220000012222908025717966009_" gradientUnits="userSpaceOnUse" x1="-16.7053" y1="56.1496" x2="397.1165" y2="55.0803">
		<stop  offset="0" style="stop-color:#E2C760"/>
		<stop  offset="1" style="stop-color:#B98E33"/>
	</linearGradient>
	<path style="fill:url(#SVGID_00000037656557899412416220000012222908025717966009_);" d="M73.2,42.8c2.5,1.9,4.2,4.5,5.2,7.7H74
		c-0.8-2.1-2.1-3.7-3.9-5c-1.8-1.2-4-1.8-6.5-1.8c-2,0-3.9,0.5-5.5,1.5c-1.6,1-2.9,2.4-3.8,4.3c-0.9,1.9-1.4,4-1.4,6.5
		c0,2.5,0.5,4.6,1.4,6.5c0.9,1.8,2.2,3.3,3.8,4.3c1.6,1,3.5,1.5,5.5,1.5c2.6,0,4.8-0.6,6.5-1.8c1.8-1.2,3.1-2.9,3.9-5h4.3
		c-1,3.3-2.7,5.8-5.2,7.7c-2.5,1.9-5.7,2.8-9.5,2.8c-2.9,0-5.5-0.7-7.8-2c-2.3-1.4-4-3.2-5.3-5.7c-1.3-2.4-1.9-5.2-1.9-8.3
		c0-3.1,0.6-5.9,1.9-8.3c1.3-2.4,3-4.3,5.3-5.7c2.3-1.4,4.9-2,7.8-2C67.5,40,70.7,40.9,73.2,42.8z"/>
	
		<linearGradient id="SVGID_00000000916770196129078150000010027567977285619120_" gradientUnits="userSpaceOnUse" x1="-16.705" y1="56.2597" x2="397.1167" y2="55.1903">
		<stop  offset="0" style="stop-color:#E2C760"/>
		<stop  offset="1" style="stop-color:#B98E33"/>
	</linearGradient>
	<path style="fill:url(#SVGID_00000000916770196129078150000010027567977285619120_);" d="M93.2,43.6v10.7h11.9v3.1H93.2v11h13.3
		v3.3H89.1V40.3h17.3v3.3H93.2z"/>
	
		<linearGradient id="SVGID_00000178914901737802572300000005541341671065035652_" gradientUnits="userSpaceOnUse" x1="-16.7041" y1="56.6436" x2="397.1177" y2="55.5743">
		<stop  offset="0" style="stop-color:#E2C760"/>
		<stop  offset="1" style="stop-color:#B98E33"/>
	</linearGradient>
	<path style="fill:url(#SVGID_00000178914901737802572300000005541341671065035652_);" d="M135.4,64.4h-13.8l-2.6,7.3h-4.4
		l11.6-30.8h4.6l11.6,30.8H138L135.4,64.4z M134.2,61.2l-5.7-15.9l-5.7,15.9H134.2z"/>
	
		<linearGradient id="SVGID_00000005260512232022029060000011225604820901119927_" gradientUnits="userSpaceOnUse" x1="-16.7046" y1="56.4309" x2="397.1172" y2="55.3616">
		<stop  offset="0" style="stop-color:#E2C760"/>
		<stop  offset="1" style="stop-color:#B98E33"/>
	</linearGradient>
	<path style="fill:url(#SVGID_00000005260512232022029060000011225604820901119927_);" d="M176.2,71.7h-4.1l-16.3-24.8v24.8h-4.1
		V40.3h4.1l16.3,24.9V40.3h4.1V71.7z"/>
	
		<linearGradient id="SVGID_00000013172917823460258780000017411483200758940068_" gradientUnits="userSpaceOnUse" x1="-16.7043" y1="56.5505" x2="397.1175" y2="55.4812">
		<stop  offset="0" style="stop-color:#E2C760"/>
		<stop  offset="1" style="stop-color:#B98E33"/>
	</linearGradient>
	<path style="fill:url(#SVGID_00000013172917823460258780000017411483200758940068_);" d="M206.5,40.3l9.6,26.9l9.7-26.9h4.4
		l-11.5,31.4h-5.1L202,40.3H206.5z"/>
	
		<linearGradient id="SVGID_00000088821088663063487480000010211257920889324160_" gradientUnits="userSpaceOnUse" x1="-16.7041" y1="56.6314" x2="397.1177" y2="55.5621">
		<stop  offset="0" style="stop-color:#E2C760"/>
		<stop  offset="1" style="stop-color:#B98E33"/>
	</linearGradient>
	<path style="fill:url(#SVGID_00000088821088663063487480000010211257920889324160_);" d="M243.7,40.3v31.4h-4.1V40.3H243.7z"/>
	
		<linearGradient id="SVGID_00000044898153077536172690000003009519891043558815_" gradientUnits="userSpaceOnUse" x1="-16.704" y1="56.647" x2="397.1177" y2="55.5776">
		<stop  offset="0" style="stop-color:#E2C760"/>
		<stop  offset="1" style="stop-color:#B98E33"/>
	</linearGradient>
	<path style="fill:url(#SVGID_00000044898153077536172690000003009519891043558815_);" d="M274.3,67.7c-0.7,1.3-1.8,2.3-3.3,3.1
		s-3.3,1.2-5.4,1.2c-2.1,0-3.9-0.4-5.5-1.1c-1.6-0.8-2.9-1.8-3.9-3.1c-1-1.3-1.5-2.8-1.7-4.5h4.3c0.1,0.9,0.4,1.8,0.9,2.6
		c0.5,0.8,1.3,1.5,2.2,2.1s2.1,0.8,3.5,0.8c1.8,0,3.1-0.5,4.1-1.4s1.4-2.2,1.4-3.7c0-1.3-0.3-2.3-1-3.1c-0.7-0.8-1.5-1.4-2.5-1.9
		c-1-0.5-2.3-1-4-1.5c-2-0.7-3.6-1.3-4.8-1.8c-1.2-0.6-2.2-1.4-3.1-2.6c-0.8-1.2-1.3-2.7-1.3-4.6c0-1.6,0.4-3.1,1.2-4.3
		c0.8-1.2,1.9-2.2,3.4-2.9c1.5-0.7,3.2-1,5.2-1c3.1,0,5.5,0.8,7.3,2.2c1.8,1.5,2.9,3.4,3.2,5.7h-4.4c-0.2-1.2-0.9-2.3-1.9-3.3
		c-1-1-2.5-1.4-4.2-1.4c-1.6,0-2.9,0.4-3.9,1.3c-1,0.8-1.5,2-1.5,3.6c0,1.2,0.3,2.2,1,3s1.4,1.4,2.4,1.8c1,0.4,2.3,0.9,3.9,1.4
		c2,0.7,3.6,1.3,4.9,1.9c1.2,0.6,2.3,1.5,3.1,2.7c0.9,1.2,1.3,2.8,1.3,4.8C275.4,65,275,66.4,274.3,67.7z"/>
	
		<linearGradient id="SVGID_00000168823444984993895590000003792667252063552191_" gradientUnits="userSpaceOnUse" x1="-16.7038" y1="56.7566" x2="397.118" y2="55.6873">
		<stop  offset="0" style="stop-color:#E2C760"/>
		<stop  offset="1" style="stop-color:#B98E33"/>
	</linearGradient>
	<path style="fill:url(#SVGID_00000168823444984993895590000003792667252063552191_);" d="M305.4,40.3v3.3h-8.9v28.1h-4.1V43.6h-8.9
		v-3.3H305.4z"/>
	
		<linearGradient id="SVGID_00000123408053905910286570000006267253511679951035_" gradientUnits="userSpaceOnUse" x1="-16.7027" y1="57.1546" x2="397.119" y2="56.0853">
		<stop  offset="0" style="stop-color:#E2C760"/>
		<stop  offset="1" style="stop-color:#B98E33"/>
	</linearGradient>
	<path style="fill:url(#SVGID_00000123408053905910286570000006267253511679951035_);" d="M333.2,64.4h-13.8l-2.6,7.3h-4.4L324,40.8
		h4.6l11.6,30.8h-4.4L333.2,64.4z M332,61.2l-5.7-15.9l-5.7,15.9H332z"/>
</g>
<g>
	<path d="M117.3,80.7l5,13.9l5-13.9h2.3l-6,16.3h-2.7L115,80.7H117.3z"/>
	<path d="M136.5,82.4V88h6.2v1.6h-6.2v5.7h6.9V97h-9V80.7h9v1.7H136.5z"/>
	<path d="M157.5,97l-4.2-6.6H151V97h-2.1V80.7h5.3c1.8,0,3.2,0.4,4.1,1.3s1.4,2.1,1.4,3.5c0,1.3-0.4,2.4-1.1,3.2
		c-0.7,0.8-1.8,1.3-3.2,1.5l4.4,6.7H157.5z M151,88.8h3.1c2.4,0,3.6-1,3.6-3.1c0-2.1-1.2-3.1-3.6-3.1H151V88.8z"/>
	<path d="M174.8,94.9c-0.4,0.7-0.9,1.2-1.7,1.6s-1.7,0.6-2.8,0.6c-1.1,0-2-0.2-2.9-0.6c-0.8-0.4-1.5-0.9-2-1.6
		c-0.5-0.7-0.8-1.5-0.9-2.3h2.2c0,0.5,0.2,0.9,0.5,1.3c0.3,0.4,0.7,0.8,1.2,1.1c0.5,0.3,1.1,0.4,1.8,0.4c0.9,0,1.6-0.2,2.1-0.7
		c0.5-0.5,0.7-1.1,0.7-1.9c0-0.7-0.2-1.2-0.5-1.6s-0.8-0.7-1.3-1s-1.2-0.5-2.1-0.8c-1-0.3-1.9-0.7-2.5-1c-0.6-0.3-1.2-0.8-1.6-1.3
		c-0.4-0.6-0.7-1.4-0.7-2.4c0-0.8,0.2-1.6,0.6-2.2c0.4-0.6,1-1.1,1.8-1.5c0.8-0.4,1.7-0.5,2.7-0.5c1.6,0,2.9,0.4,3.8,1.2
		c0.9,0.8,1.5,1.8,1.6,3h-2.3c-0.1-0.6-0.5-1.2-1-1.7s-1.3-0.7-2.2-0.7c-0.8,0-1.5,0.2-2,0.7c-0.5,0.4-0.8,1.1-0.8,1.9
		c0,0.6,0.2,1.1,0.5,1.5c0.3,0.4,0.7,0.7,1.2,0.9c0.5,0.2,1.2,0.5,2,0.8c1,0.3,1.9,0.7,2.5,1s1.2,0.8,1.6,1.4
		c0.4,0.6,0.7,1.4,0.7,2.5C175.4,93.5,175.2,94.2,174.8,94.9z"/>
	<path d="M192.5,81.6c1.2,0.7,2.2,1.7,2.8,3c0.7,1.3,1,2.7,1,4.3s-0.3,3-1,4.3c-0.7,1.3-1.6,2.3-2.8,3c-1.2,0.7-2.6,1.1-4.1,1.1
		c-1.5,0-2.9-0.4-4.1-1.1c-1.2-0.7-2.2-1.7-2.9-3c-0.7-1.3-1-2.7-1-4.3s0.3-3,1-4.3c0.7-1.3,1.6-2.3,2.9-3c1.2-0.7,2.6-1.1,4.1-1.1
		C189.9,80.5,191.2,80.9,192.5,81.6z M185.4,83.3c-0.9,0.5-1.6,1.3-2.1,2.2c-0.5,1-0.7,2.1-0.7,3.4c0,1.3,0.2,2.4,0.7,3.4
		c0.5,1,1.2,1.7,2.1,2.2c0.9,0.5,1.9,0.8,3,0.8c1.1,0,2.1-0.3,3-0.8c0.9-0.5,1.6-1.3,2.1-2.2c0.5-1,0.7-2.1,0.7-3.4
		c0-1.3-0.2-2.4-0.7-3.4c-0.5-1-1.2-1.7-2.1-2.2c-0.9-0.5-1.9-0.8-3-0.8C187.3,82.5,186.3,82.7,185.4,83.3z"/>
	<path d="M203,80.7l5,13.9l5-13.9h2.3l-6,16.3h-2.7l-5.9-16.3H203z"/>
	<path d="M229.7,93.2h-7.1l-1.4,3.8h-2.3l6-16h2.4l6,16H231L229.7,93.2z M229.1,91.6l-3-8.2l-3,8.2H229.1z"/>
</g>
</svg>
